<svg id="Capa_1" enable-background="new 0 0 511.979 511.979" height="512" viewBox="0 0 511.979 511.979" width="512" xmlns="http://www.w3.org/2000/svg"><g><g><path d="m270.55 16.781-6.551 1.665-17.357 27.235v30.343l17.568 33.112h6.34c11.561-11.959 18.686-28.229 18.686-46.178 0-17.948-7.125-34.218-18.686-46.177z" fill="#8cc825"/><path d="m251.864 62.958c0-17.949 7.125-34.219 18.686-46.178-2.521-2.608-5.245-5.02-8.162-7.19-3.786-2.817-9.02-2.817-12.806 0-16.289 12.118-26.848 31.504-26.848 53.367s10.559 41.25 26.848 53.368c3.786 2.817 9.02 2.817 12.806 0 2.917-2.17 5.641-4.581 8.162-7.19-11.561-11.958-18.686-28.228-18.686-46.177z" fill="#82b922"/><path d="m226.942 172.352c-2.445-23.846-15.725-46.273-37.9-59.488-8.122-4.841-16.764-8.037-25.543-9.7h-11.523l-15.628 10.286 8.911 39.894 29.475 30.708 23.443 5.826 5.343.134c5.369-1.012 10.629-2.573 15.683-4.673 5.144-2.136 8.308-7.445 7.739-12.987z" fill="#8cc825"/><path d="m393.284 107.837c-5.054-2.1-10.314-3.661-15.683-4.673l-8.266.347-26.308 10.232-31.613 38.869v30.343l15.903 7.058h10.266c8.778-1.663 17.421-4.859 25.543-9.7 22.175-13.215 35.455-35.642 37.9-59.488.567-5.542-2.597-10.85-7.742-12.988z" fill="#8cc825"/><path d="m177.976 180.313c-22.175-13.215-35.455-35.642-37.9-59.488-.568-5.542 2.595-10.851 7.741-12.988 5.054-2.1 10.314-3.661 15.683-4.673-15.188-2.878-30.785-1.155-44.813 4.673-5.145 2.137-8.309 7.446-7.74 12.988 2.445 23.846 15.725 46.273 37.9 59.488 17.112 10.198 36.526 13.12 54.673 9.7-8.78-1.663-17.422-4.859-25.544-9.7z" fill="#82b922"/><path d="m321.898 185.34c-5.145-2.138-8.309-7.446-7.741-12.988 2.445-23.846 15.725-46.273 37.9-59.488 8.122-4.841 16.765-8.037 25.543-9.7-18.146-3.42-37.561-.498-54.672 9.7-22.175 13.215-35.455 35.642-37.9 59.488-.568 5.542 2.595 10.851 7.74 12.988 14.028 5.828 29.625 7.551 44.813 4.673-5.369-1.012-10.628-2.573-15.683-4.673z" fill="#82b922"/><path d="m467.697 284.365c-.246-6.24-5.378-11.171-11.623-11.171h-27.476l-6.073 4.975h-135.334l-13.096-4.975h-144.8l-6.104 7.308v72.667l33 74.667 37.749 38 44.084 26.625 34.25 8.688 14.478 1.099c102.432-14.903 181.108-103.079 181.108-209.644.001-2.76-.055-5.506-.163-8.239z" fill="#60b9fe"/><path d="m125.025 313.479c0-13.822 1.481-27.296 4.27-40.284h-30.423l-5.681 4.975 73.833 195.167 5.855 14.215c25.518 10.893 53.606 16.928 83.106 16.928 10.451 0 20.721-.77 30.767-2.231-91.59-14.089-161.727-93.238-161.727-188.77z" fill="#1ca8ff"/><path d="m123.191 353.169 33 74.667 8.958 9.017c-4.228-17.244 4.262-30.947 22.485-68.281 23.305-47.747-24.442-32.399-38.652-62.512-5.462-11.574-15.457-17.022-25.791-21.348z" fill="#bced6b"/><path d="m164.105 429.238c-24.512-32.12-39.08-72.235-39.08-115.759 0-9.209.666-18.262 1.926-27.123-9.822-4.506-20.432-7.403-28.078-13.161h-42.979c-6.246 0-11.38 4.934-11.623 11.176-.107 2.731-.161 5.476-.161 8.233 0 87.516 53.064 162.632 128.769 194.947 5.68-9.405 5.903-21.813-1.161-34.854-4.956-9.151-7.408-16.256-7.613-23.459z" fill="#a2e82d"/><path d="m323.422 273.194v4.975l59.603 17.417v26.75l-11.25 27v36.25l7.25 13.25 5.402 1.87c19.252-24.303 40.691-65.491 42.034-90.112.675-12.378.109-25.466 2.137-37.4z" fill="#bced6b"/><path d="m376.684 362.666c-2.558-24.3 17.052-33.252 13.642-60.11s-17.905-13.642-55.846-24.953c-4.086-1.218-7.761-2.698-11.057-4.409h-49.327c5.47 8.646 14.499 15.419 27.884 19.409 37.942 11.312 52.436-1.904 55.846 24.953s-16.2 35.81-13.642 60.11 4.689 54.567 25.579 38.368c4.438-3.441 9.472-8.773 14.665-15.328-4.924-7.89-6.263-23.965-7.744-38.04z" fill="#a2e82d"/></g><g><path d="m456.078 265.694c-9.049 0-183.167 0-192.589 0v-65.026l20.816-11.919c8.261 7.347 38.56 15.622 67.83 5.03 3.896-1.409 5.91-5.709 4.501-9.604-1.409-3.896-5.713-5.911-9.604-4.5-15.311 5.54-31.957 5.596-47.336.262l64.299-36.815c3.595-2.058 4.84-6.641 2.782-10.235-2.059-3.595-6.641-4.841-10.235-2.782l-62.993 36.067c8.691-43.302 55.009-68.796 96.862-51.408 2.09.868 3.388 3.046 3.157 5.297-1.64 15.993-8.702 31.085-19.886 42.497-2.899 2.958-2.852 7.707.107 10.606 2.957 2.9 7.707 2.851 10.605-.107 13.553-13.829 22.109-32.106 24.095-51.465.901-8.788-4.167-17.292-12.324-20.68-53.165-22.087-112.714 13.336-118.594 70.675-.129 1.259-.123 2.509-.015 3.742l-14.067 8.054v-59.074c1.18-.528 2.317-1.175 3.38-1.966 39.735-29.561 39.784-89.172 0-118.77-6.406-4.765-15.353-4.764-21.759 0-39.735 29.561-39.785 89.173 0 118.77 1.062.791 2.2 1.438 3.379 1.966v59.074l-14.067-8.054c.107-1.233.114-2.483-.015-3.741-5.871-57.269-65.365-92.79-118.595-70.677-8.156 3.389-13.225 11.893-12.323 20.679 5.873 57.267 65.364 92.79 118.594 70.676 2.082-.865 3.959-2.066 5.59-3.517l20.816 11.918v65.026c-3.875 0-188.364 0-192.589 0h-.002c-10.318 0-18.716 8.075-19.117 18.384-4.857 123.891 94.164 227.9 219.209 227.9 124.824 0 224.112-103.719 219.205-227.909-.406-10.302-8.804-18.374-19.117-18.374zm-308.094-122.572 64.319 36.827c-42.756 14.894-89.154-13.684-93.893-59.889-.23-2.25 1.067-4.429 3.156-5.297h.001c41.915-17.416 88.187 8.183 96.861 51.408l-62.992-36.067c-3.594-2.059-8.178-.812-10.235 2.782s-.812 8.178 2.783 10.236zm106.079-127.514c.567-.422 1.247-.633 1.926-.633.68 0 1.359.211 1.927.633 29.859 22.214 31.622 65.257 5.573 90.002v-49.541c0-4.142-3.357-7.5-7.5-7.5s-7.5 3.358-7.5 7.5v49.54c-26.035-24.731-24.298-67.778 5.574-90.001zm-85.084 461.895c-72.583-34.294-120.502-109.222-117.208-192.841.088-2.225 1.901-3.968 4.129-3.968h40.602c5.528 3.664 11.888 6.179 18.062 8.622 11.525 4.559 22.411 8.864 27.641 19.945 6.696 14.19 19.231 19.912 29.305 24.51 6.908 3.153 12.874 5.876 14.403 10.142 1.501 4.185-.233 11.575-5.015 21.37-2.158 4.421-4.179 8.51-6.059 12.312-18.675 37.781-24.967 50.509-9.711 78.673 4.069 7.514 5.364 14.841 3.851 21.235zm87.01 19.476c-25.754 0-50.404-4.801-73.12-13.535 3.282-10.571 1.763-22.661-4.552-34.32-11.557-21.335-8.271-27.984 9.969-64.883 1.89-3.823 3.922-7.934 6.092-12.379 6.879-14.094 8.676-24.584 5.654-33.012-3.665-10.222-13.136-14.545-22.295-18.725-9.059-4.135-17.615-8.04-21.968-17.266h-.001c-5.348-11.333-14.056-17.643-23.237-22.165h137.679c6.785 8.832 16.727 15.25 29.631 19.097 14.13 4.212 25.301 5.209 33.458 5.937 6.129.547 10.971.979 13.248 2.455.755.49 2.76 1.79 3.843 10.319 1.483 11.683-2.096 19.102-6.241 27.691-4.161 8.625-8.878 18.4-7.42 32.259 2.279 21.868 3.893 42.911 16.832 48.444 7.236 3.094 14.607-.13 20.803-4.935 10.054-7.797 23.004-24.37 34.641-44.331 2.086-3.579.876-8.17-2.702-10.257-3.577-2.084-8.17-.876-10.257 2.702-10.559 18.112-22.389 33.452-30.874 40.032-4.028 3.124-5.725 2.991-5.713 2.997-4.89-2.212-7.384-32.109-7.812-36.222-1.012-9.613 2.243-16.359 6.012-24.17 4.525-9.379 9.655-20.01 7.612-36.1-2.967-23.357-15.791-24.501-30.64-25.826-7.94-.708-17.823-1.59-30.505-5.371-4.209-1.255-7.976-2.831-11.288-4.722h127.28c-.502 5.844-.63 11.757-.755 17.54-.09 4.146-.174 8.062-.387 11.952-.413 7.584-3.13 17.778-7.856 29.481-1.552 3.841.305 8.212 4.146 9.763 3.842 1.554 8.212-.306 9.763-4.146 5.413-13.404 8.417-24.938 8.927-34.282.555-10.213.288-20.564 1.232-30.308h20.891c2.228 0 4.041 1.743 4.129 3.967v.001c4.6 115.432-88.245 212.318-204.219 212.318z"/></g></g></svg>